<?xml version="1.0" encoding="utf-8"?>
<!-- Generator: Adobe Illustrator 19.1.0, SVG Export Plug-In . SVG Version: 6.00 Build 0)  -->
<svg version="1.1" id="Layer_1" xmlns="http://www.w3.org/2000/svg" xmlns:xlink="http://www.w3.org/1999/xlink" x="0px" y="0px"
	 viewBox="0 0 183 58" style="enable-background:new 0 0 183 58;" xml:space="preserve">
<style type="text/css">
	.st0{fill:none;stroke:#000000;stroke-miterlimit:10;}
	.st1{fill:none;}
</style>
<path class="st0" d="M96.8,38.4c-0.1-0.6,1.3-2.4,1.8-2.7c1-0.8,1.5-0.3,2.3,0.3c1.7,1.6,3.1,1.6,5.4,1.6"/>
<path class="st0" d="M34.3,28.6c0.6-2.5,1.6-4.3,2.4-5.4c0.4-0.6,1.2-1.7,1.6-1.5c0.6,0.2,0.3,2.3,0.1,3.6c-0.4,3.1-1,4.2-1.4,6.4
	c-0.2,1.2-0.3,3,0,5.4"/>
<path class="st0" d="M5.5,38.6c-0.4,0.3-1.5,0.9-2.6,0.6c-0.2-0.1-0.6-0.2-0.8-0.4c-0.8-1.3,6-7.3,8.2-9.2
	c6.2-5.4,9.4-8.1,12.5-10.1c0,0,13.3-9,27.2-8.6c2.5,0.1,5.1,0.5,7,2.1c1.7,1.4,2.5,3.7,2.6,5.9c0.4,5.3-2.8,10.3-6.6,14.1
	c-3.8,3.8-8.4,6.7-12,10.6c0,0,0,0,0,0c0,0,5.1-4.9,11.3-6.3c8.9-2.1,17.4,3.5,18.1,4"/>
<path class="st0" d="M67.9,39.4c1.4-1.6,3.7-2.2,5.9-1.9c2.1,0.3,4.1,1.4,5.9,2.5c-0.6-0.5-1.3-1.1-1.6-1.9s-0.2-1.8,0.5-2.3"/>
<path class="st0" d="M87.3,38.8c-1,1.3-1.5,1.4-1.7,1.3c-0.4-0.2,0.1-1.2,0-2.9c-0.1-2-0.7-2.8-0.4-3.1c0.3-0.3,1.6,0.1,6.2,3.7"/>
<path class="st0" d="M124.2,35.8c-1-4-1.2-7.4-1.1-9.9c0-2.8,0.4-4.7,1-8.4c1.1-6.2,2.1-8.1,2.7-9.2c1-1.6,2.4-3.8,4.5-3.9
	c1.6-0.1,3,1.1,3.8,2.5c1,1.9,1,3.7,0.9,4.6c-1.2,13.8-2,17.2-2,17.2c-0.7,3.3-1.7,7.3-3,12c-0.2,0-0.3-0.1-0.5-0.1"/>
<path class="st0" d="M145.2,21.4"/>
<path class="st0" d="M135.4,17.6c0.5-1.6,2.6-7.5,4.2-11.5c0.3-0.7,0.8-1.9,1.7-2c0.9-0.1,1.8,1.1,2.1,1.5c2.7,3.9,2,13.5,1.9,15.4
	c-0.8,12.1-0.6,15.2,1.5,16.9c1.4,1.1,3.1,1.2,4.3,1.1"/>
<path class="st0" d="M157.9,33.9c0.9,1.6,2.5,4.2,3.8,3.9c0.6-0.1,0.8-0.8,1.5-2.4c0.3-0.6,2.5-5.5,3-5.3c0.3,0.1-0.1,2.5-0.5,5.1
	c-1.3,8.5-0.8,12.4-3.5,17.5c-1.3,2.4-1.9,2.6-2.2,2.5c-1.3-0.1-2.1-3.9-1.9-6.8c0.1-1.4,0.1-2.3,0.7-3.4c1.9-3.3,6.8-3.4,7.8-3.4
	c4.6-0.1,7.9,2.6,8.9,3.6"/>
<path class="st0" d="M158.4,35c0-1.4-2.3-2.9-4.4-2.8c-2.2,0.1-3.4,1.9-3.5,2c-0.9,1.3-1.2,3.5-0.2,4.4c0.5,0.4,1.1,0.4,1.8,0.4
	c1.3,0,2.2-0.5,3.3-1.1C157.2,36.8,158.4,36.1,158.4,35z"/>
<rect id="_x3C_Slice_x3E_" class="st1" width="183" height="58"/>
</svg>
